<?xml version="1.0" encoding="utf-8"?>
<!-- Generator: Adobe Illustrator 16.0.0, SVG Export Plug-In . SVG Version: 6.00 Build 0)  -->
<!DOCTYPE svg PUBLIC "-//W3C//DTD SVG 1.0//EN" "http://www.w3.org/TR/2001/REC-SVG-20010904/DTD/svg10.dtd">
<svg version="1.0" id="Layer_1" xmlns="http://www.w3.org/2000/svg" xmlns:xlink="http://www.w3.org/1999/xlink" x="0px" y="0px"
	 width="100px" height="100px" viewBox="0 0 100 100" enable-background="new 0 0 100 100" xml:space="preserve">
<polygon fill="#29B6F6" points="27.974,63.334 23.529,76.667 30.557,76.667 35,63.334 "/>
<path fill="#29B6F6" d="M73.333,23.333C70.07,15.501,62.348,10,53.333,10c-12.421,0-22.825,8.503-25.794,20h-4.206
	C15.971,30,10,35.971,10,43.333c0,7.364,5.971,13.333,13.333,13.333h50C82.539,56.667,90,49.206,90,40S82.539,23.333,73.333,23.333z
	 M73.333,50h-50c-3.679,0-6.667-2.995-6.667-6.667c0-3.679,2.988-6.667,6.667-6.667h10c0-11.048,8.955-20,20-20
	c7.702,0,13.991,5.854,14.831,13.333h5.169c5.515,0,10,4.485,10,10C83.333,45.516,78.848,50,73.333,50z"/>
<circle fill="#BDBDBD" cx="23.333" cy="86.667" r="3.333"/>
<polygon fill="#29B6F6" points="47.025,90 51.473,76.667 44.443,76.667 40,90 "/>
<circle fill="#BDBDBD" cx="51.667" cy="66.667" r="3.333"/>
<polygon fill="#29B6F6" points="67.977,63.334 63.527,76.667 70.557,76.667 75,63.334 "/>
<circle fill="#BDBDBD" cx="63.333" cy="86.667" r="3.333"/>
</svg>
