<?xml version="1.0" encoding="utf-8"?>
<!-- Generator: Adobe Illustrator 16.0.0, SVG Export Plug-In . SVG Version: 6.00 Build 0)  -->
<!DOCTYPE svg PUBLIC "-//W3C//DTD SVG 1.0//EN" "http://www.w3.org/TR/2001/REC-SVG-20010904/DTD/svg10.dtd">
<svg version="1.0" id="Layer_1" xmlns="http://www.w3.org/2000/svg" xmlns:xlink="http://www.w3.org/1999/xlink" x="0px" y="0px"
	 width="100px" height="100px" viewBox="0 0 100 100" enable-background="new 0 0 100 100" xml:space="preserve">
<path fill="#29B6F6" d="M76.666,63.334h-3.6c-1.621-11.303-11.314-20-23.066-20c-11.751,0-21.445,8.698-23.066,20h-3.6
	C15.97,63.334,10,69.304,10,76.667S15.97,90,23.333,90h53.333C84.029,90,90,84.03,90,76.667S84.029,63.334,76.666,63.334z
	 M76.666,83.334H23.333c-3.682,0-6.667-2.986-6.667-6.667c0-3.682,2.985-6.667,6.667-6.667h10v-3.333C33.333,57.465,40.794,50,50,50
	c9.202,0,16.666,7.465,16.666,16.667V70h10c3.683,0,6.668,2.985,6.668,6.667C83.334,80.348,80.349,83.334,76.666,83.334z"/>
<path fill="#FFCA28" d="M90,16.394L65.41,30.587c-0.801-0.968-1.693-1.86-2.662-2.665L73.096,10h-7.699l-8.43,14.606
	c-1.166-0.437-2.377-0.761-3.633-0.973V10h-6.667v13.633c-1.256,0.212-2.467,0.537-3.633,0.97L34.603,10h-7.695l10.345,17.923
	c-0.97,0.805-1.859,1.696-2.663,2.663L10,16.388v7.697l21.27,12.283c-0.43,1.164-0.759,2.377-0.97,3.631H10v6.667h20.299
	c0.309,1.834,0.933,3.553,1.704,5.185c1.507-1.834,3.285-3.433,5.277-4.734c-0.361-1.207-0.613-2.459-0.613-3.784
	C36.667,35.969,42.637,30,50,30c7.36,0,13.334,5.969,13.334,13.333c0,1.325-0.252,2.576-0.614,3.784
	c1.991,1.301,3.769,2.899,5.274,4.731c0.773-1.632,1.398-3.345,1.707-5.182H90V40H69.701c-0.212-1.254-0.541-2.465-0.971-3.629
	L90,24.09V16.394z"/>
</svg>
