<?xml version="1.0" encoding="utf-8"?>
<!-- Generator: Adobe Illustrator 16.0.0, SVG Export Plug-In . SVG Version: 6.00 Build 0)  -->
<!DOCTYPE svg PUBLIC "-//W3C//DTD SVG 1.0//EN" "http://www.w3.org/TR/2001/REC-SVG-20010904/DTD/svg10.dtd">
<svg version="1.0" id="Layer_1" xmlns="http://www.w3.org/2000/svg" xmlns:xlink="http://www.w3.org/1999/xlink" x="0px" y="0px"
	 width="100px" height="100px" viewBox="0 0 100 100" enable-background="new 0 0 100 100" xml:space="preserve">
<path fill="#616161" d="M83.335,56.667c0-17.284-13.158-31.492-30.001-33.167v-6.833h-6.666V23.5
	c-16.844,1.675-30.001,15.883-30.001,33.167c0,5.183,13.157,9.446,30.001,9.946V80c0,5.522,4.478,10,10,10c5.52,0,10-4.478,10-10
	v-3.332H60V80c0,1.839-1.494,3.333-3.332,3.333c-1.84,0-3.334-1.494-3.334-3.333V66.613C70.177,66.113,83.335,61.85,83.335,56.667z
	 M53.334,59.936v-6.537c9.391,0.301,16.42,1.816,20.396,3.27C69.754,58.118,62.725,59.636,53.334,59.936z M50,30
	c12.556,0,23.055,8.688,25.889,20.373C69.775,48.111,60.457,46.667,50,46.667c-10.456,0-19.776,1.444-25.889,3.704
	C26.943,38.687,37.445,30,50,30z M26.271,56.667c3.975-1.452,11.002-2.969,20.397-3.269v6.535
	C37.275,59.636,30.248,58.118,26.271,56.667z"/>
<polygon fill="#29B6F6" points="23.693,16.667 17.027,36.667 10,36.667 16.667,16.667 "/>
<polygon fill="#29B6F6" points="90.001,10 83.335,30 76.304,30 82.97,10 "/>
<polygon fill="#29B6F6" points="30,20 33.334,10 40.362,10 37.027,20 "/>
<polygon fill="#29B6F6" points="63.334,20 66.668,10 73.7,10 70.366,20 "/>
</svg>
