<?xml version="1.0" encoding="utf-8"?>
<!-- Generator: Adobe Illustrator 16.0.0, SVG Export Plug-In . SVG Version: 6.00 Build 0)  -->
<!DOCTYPE svg PUBLIC "-//W3C//DTD SVG 1.0//EN" "http://www.w3.org/TR/2001/REC-SVG-20010904/DTD/svg10.dtd">
<svg version="1.0" id="Layer_1" xmlns="http://www.w3.org/2000/svg" xmlns:xlink="http://www.w3.org/1999/xlink" x="0px" y="0px"
	 width="100px" height="100px" viewBox="0 0 100 100" enable-background="new 0 0 100 100" xml:space="preserve">
<rect x="46.667" y="16.667" fill="#FFCA28" width="6.666" height="20"/>
<rect x="10" y="63.333" fill="#FFCA28" width="10" height="6.667"/>
<rect x="80" y="63.333" fill="#FFCA28" width="10" height="6.667"/>
<rect x="8.958" y="33.901" transform="matrix(0.707 0.7072 -0.7072 0.707 32.3609 -3.6405)" fill="#FFCA28" width="23.232" height="6.672"/>
<rect x="67.811" y="33.904" transform="matrix(0.7071 -0.7071 0.7071 0.7071 -3.0667 67.0722)" fill="#FFCA28" width="23.234" height="6.668"/>
<path fill="#FFCA28" d="M28.941,76.667c-1.441-3.034-2.274-6.416-2.274-10c0-12.885,10.449-23.334,23.333-23.334
	s23.333,10.449,23.333,23.334c0,3.584-0.833,6.966-2.274,10h-7.8c2.109-2.793,3.407-6.229,3.407-10C66.666,57.461,59.201,50,50,50
	c-9.206,0-16.667,7.461-16.667,16.667c0,3.771,1.299,7.207,3.408,10H28.941z"/>
<rect x="10" y="76.667" fill="#616161" width="80" height="6.666"/>
</svg>
