<?xml version="1.0" encoding="utf-8"?>
<!-- Generator: Adobe Illustrator 16.0.0, SVG Export Plug-In . SVG Version: 6.00 Build 0)  -->
<!DOCTYPE svg PUBLIC "-//W3C//DTD SVG 1.0//EN" "http://www.w3.org/TR/2001/REC-SVG-20010904/DTD/svg10.dtd">
<svg version="1.0" id="Layer_1" xmlns="http://www.w3.org/2000/svg" xmlns:xlink="http://www.w3.org/1999/xlink" x="0px" y="0px"
	 width="100px" height="100px" viewBox="0 0 100 100" enable-background="new 0 0 100 100" xml:space="preserve">
<rect x="46.667" y="10" fill="#FFCA28" width="6.667" height="6.667"/>
<rect x="83.333" y="46.667" fill="#FFCA28" width="6.667" height="6.666"/>
<polygon fill="#FFCA28" points="85.286,10 71.218,24.068 75.928,28.788 90,14.714 "/>
<polygon fill="#FFCA28" points="62.966,10 59.686,17.921 65.837,20.479 70.18,10 "/>
<polygon fill="#FFCA28" points="29.828,10 34.165,20.471 40.326,17.927 37.042,10 "/>
<polygon fill="#FFCA28" points="90,62.955 82.073,59.67 79.521,65.833 90,70.177 "/>
<polygon fill="#FFCA28" points="90,29.824 79.523,34.163 82.066,40.323 90,37.038 "/>
<path fill="#29B6F6" d="M30,70h6.667C44.033,70,50,64.028,50,56.666c0-7.364-5.967-13.332-13.334-13.331
	c-3.681,0-7.017,1.491-9.43,3.906l-4.715-4.712c1.958-1.959,4.258-3.453,6.758-4.447C26.971,29.59,19.225,23.334,10,23.334v-6.668
	c11.997,0,22.571,8.093,25.716,19.678l0.097,0.364c0.285-0.011,0.567-0.04,0.853-0.04c0.002,0,0.003,0,0.005,0
	c5.34,0,10.361,2.08,14.139,5.856c3.776,3.775,5.855,8.798,5.855,14.141H60c9.189,0,16.667,7.478,16.667,16.668
	C76.667,82.522,69.189,90,60,90H10v-6.666h50c5.524,0,10-4.477,10-10s-4.476-10-10-10h-4.5
	c-2.755,7.755-10.146,13.333-18.834,13.333H30V70z"/>
<path fill="#FFCA28" d="M35.648,36.113l0.012,0.028C39.294,32.376,44.354,30,50,30c11.041,0,20,8.954,20,20
	c0,3.126-0.735,6.072-2.02,8.706c2.02,1.106,3.784,2.62,5.188,4.429c2.214-3.881,3.499-8.353,3.499-13.135
	c0-14.729-11.943-26.667-26.667-26.667c-6.544,0-12.502,2.396-17.138,6.313l0.006,0.015C34.057,31.647,35,33.809,35.648,36.113z"/>
</svg>
