<?xml version="1.0" encoding="utf-8"?>
<!-- Generator: Adobe Illustrator 16.0.0, SVG Export Plug-In . SVG Version: 6.00 Build 0)  -->
<!DOCTYPE svg PUBLIC "-//W3C//DTD SVG 1.0//EN" "http://www.w3.org/TR/2001/REC-SVG-20010904/DTD/svg10.dtd">
<svg version="1.0" id="Layer_1" xmlns="http://www.w3.org/2000/svg" xmlns:xlink="http://www.w3.org/1999/xlink" x="0px" y="0px"
	 width="100px" height="100px" viewBox="0 0 100 100" enable-background="new 0 0 100 100" xml:space="preserve">
<rect x="11.464" y="11.464" transform="matrix(-0.7071 -0.7071 0.7071 -0.7071 15 36.2132)" fill="#BDBDBD" width="7.071" height="7.071"/>
<rect x="27.643" y="15.979" transform="matrix(-0.7072 -0.7071 0.7071 -0.7072 38.2509 52.5148)" fill="#BDBDBD" width="4.715" height="4.714"/>
<rect x="35.976" y="34.31" transform="matrix(-0.7073 -0.7069 0.7069 -0.7073 39.5266 89.6997)" fill="#BDBDBD" width="4.714" height="4.715"/>
<rect x="41.463" y="18.131" transform="matrix(-0.7071 -0.7071 0.7071 -0.7071 61.4976 68.8062)" fill="#BDBDBD" width="7.071" height="7.071"/>
<rect x="18.131" y="29.798" transform="matrix(-0.7071 -0.7071 0.7071 -0.7071 13.4172 72.2255)" fill="#BDBDBD" width="7.071" height="7.071"/>
<rect x="14.31" y="47.643" transform="matrix(-0.707 -0.7072 0.7072 -0.707 -6.9099 97.1372)" fill="#BDBDBD" width="4.714" height="4.714"/>
<path fill="#29B6F6" d="M73.333,56.666c-3.263-7.832-10.985-13.333-20-13.333c-12.421,0-22.825,8.501-25.794,20h-4.206
	C15.972,63.332,10,69.303,10,76.666S15.972,90,23.333,90h50C82.539,90,90,82.539,90,73.332C90,64.127,82.539,56.666,73.333,56.666z
	 M73.333,83.332h-50c-3.679,0-6.666-2.994-6.666-6.668c0-3.678,2.987-6.666,6.666-6.666h10c0-11.049,8.955-20,20-20
	c7.702,0,13.991,5.854,14.831,13.332h5.169c5.515,0,10,4.486,10,10C83.333,78.848,78.848,83.332,73.333,83.332z"/>
<path fill="#FFCA28" d="M53.333,43.333c2.018,0,3.964,0.289,5.816,0.805c-1.493-2.149-2.381-4.751-2.381-7.569
	c0-3.576,1.425-6.809,3.721-9.205c1.712,9.576,9.245,17.109,18.815,18.822c-2.394,2.292-5.625,3.717-9.203,3.717
	c-0.474,0-0.924-0.084-1.381-0.137c1.851,1.87,3.36,4.072,4.435,6.516C82.106,54.9,89.107,47.65,90,38.549
	c-2.016,0.865-4.23,1.354-6.564,1.354c-9.207,0-16.668-7.461-16.668-16.668c0-2.333,0.488-4.551,1.354-6.568
	c-10.121,0.996-18.021,9.525-18.021,19.902c0,2.406,0.445,4.711,1.227,6.844C51.99,43.363,52.658,43.333,53.333,43.333z"/>
</svg>
