<?xml version="1.0" encoding="utf-8"?>
<!-- Generator: Adobe Illustrator 16.0.0, SVG Export Plug-In . SVG Version: 6.00 Build 0)  -->
<!DOCTYPE svg PUBLIC "-//W3C//DTD SVG 1.0//EN" "http://www.w3.org/TR/2001/REC-SVG-20010904/DTD/svg10.dtd">
<svg version="1.0" id="Layer_1" xmlns="http://www.w3.org/2000/svg" xmlns:xlink="http://www.w3.org/1999/xlink" x="0px" y="0px"
	 width="100px" height="100px" viewBox="0 0 100 100" enable-background="new 0 0 100 100" xml:space="preserve">
<polygon fill="#FFCA28" points="60,46.667 47.776,46.667 40,70 50,70 43.332,90 63.332,63.333 53.332,63.333 "/>
<path fill="#FFCA28" d="M18.967,44.068c1.368-0.474,2.837-0.735,4.367-0.735h4.205c0.298-1.153,0.674-2.274,1.116-3.362
	c-0.108,0.006-0.212,0.03-0.32,0.03c-6.438,0-11.668-5.225-11.668-11.667c0-6.441,5.229-11.667,11.668-11.667
	c5.983,0,10.86,4.524,11.534,10.325c1.966-1.156,4.092-2.066,6.34-2.69C44.37,16.121,37.076,10,28.335,10
	C18.21,10,10,18.21,10,28.333C10,35.031,13.606,40.872,18.967,44.068z"/>
<path fill="#29B6F6" d="M73.334,36.666c-3.264-7.832-10.986-13.333-20-13.333c-12.422,0-22.826,8.501-25.795,20h-4.205
	C15.971,43.333,10,49.303,10,56.666S15.971,70,23.334,70h9.999v-6.668h-9.999c-3.68,0-6.668-2.994-6.668-6.668
	c0-3.678,2.988-6.666,6.668-6.666h10c0-11.048,8.954-20,20-20c7.701,0,13.99,5.854,14.83,13.332h5.17c5.514,0,10,4.487,10,10
	c0,5.518-4.486,10.002-10,10.002H70V70h3.334C82.539,70,90,62.539,90,53.332C90,44.127,82.539,36.666,73.334,36.666z"/>
</svg>
