<?xml version="1.0" encoding="utf-8"?>
<!-- Generator: Adobe Illustrator 16.0.0, SVG Export Plug-In . SVG Version: 6.00 Build 0)  -->
<!DOCTYPE svg PUBLIC "-//W3C//DTD SVG 1.0//EN" "http://www.w3.org/TR/2001/REC-SVG-20010904/DTD/svg10.dtd">
<svg version="1.0" id="Layer_1" xmlns="http://www.w3.org/2000/svg" xmlns:xlink="http://www.w3.org/1999/xlink" x="0px" y="0px"
	 width="100px" height="100px" viewBox="0 0 100 100" enable-background="new 0 0 100 100" xml:space="preserve">
<path fill="#29B6F6" d="M90,56.846v6.488h-5.17C83.99,55.853,77.701,50,70,50c-11.045,0-20,8.952-20,20H40
	c-3.678,0-6.666,2.988-6.666,6.667c0,3.672,2.988,6.667,6.666,6.667h50V90H40c-7.363,0-13.332-5.971-13.332-13.333
	c0-7.363,5.969-13.333,13.332-13.333h4.213c2.972-11.483,13.389-20,25.788-20C78.979,43.334,86.768,48.849,90,56.846z"/>
<path fill="#8BC34A" d="M43.333,63.334h0.879c0.845-3.266,2.293-6.289,4.216-8.947c-3.681-10.32-13.513-17.72-25.095-17.72
	c-4.863,0-9.407,1.323-13.333,3.597v8.193c3.542-3.176,8.202-5.123,13.333-5.123C34.378,43.334,43.333,52.287,43.333,63.334z"/>
<path fill="#FFCA28" d="M53.438,49.125l0.059-0.037c1.705-1.352,3.576-2.5,5.58-3.407l0.059-0.035
	c-6.531-13.205-20.076-22.312-35.801-22.312c-4.682,0-9.157,0.846-13.333,2.326v7.133C14.085,31.006,18.587,30,23.333,30
	C36.651,30,48.102,37.832,53.438,49.125z"/>
<path fill="#F44336" d="M65.604,43.699c1.432-0.239,2.898-0.365,4.396-0.365c0.969,0,1.92,0.076,2.857,0.201
	C64.992,23.887,45.788,10,23.333,10c-4.612,0-9.063,0.646-13.333,1.748v6.877c4.226-1.258,8.694-1.958,13.333-1.958
	C42.08,16.667,58.189,27.75,65.604,43.699z"/>
</svg>
