<?xml version="1.0" encoding="utf-8"?>
<!-- Generator: Adobe Illustrator 16.0.0, SVG Export Plug-In . SVG Version: 6.00 Build 0)  -->
<!DOCTYPE svg PUBLIC "-//W3C//DTD SVG 1.0//EN" "http://www.w3.org/TR/2001/REC-SVG-20010904/DTD/svg10.dtd">
<svg version="1.0" id="Layer_1" xmlns="http://www.w3.org/2000/svg" xmlns:xlink="http://www.w3.org/1999/xlink" x="0px" y="0px"
	 width="100px" height="100px" viewBox="0 0 100 100" enable-background="new 0 0 100 100" xml:space="preserve">
<path fill="#29B6F6" d="M76.667,60c0-7.352-5.98-13.333-13.333-13.333c-1.553,0-3.042,0.27-4.428,0.759
	c-2.41-6.377-8.558-10.759-15.572-10.759c-9.19,0-16.667,7.478-16.667,16.667C17.461,53.334,10,60.795,10,70
	c0,9.206,7.461,16.667,16.667,16.667h50C84.028,86.667,90,80.696,90,73.335C90,65.971,84.028,60,76.667,60z M76.667,80.001h-50
	c-5.521,0-10-4.479-10-10.001c0-5.527,4.479-10,10-10h6.666v-6.666c0-5.526,4.478-10,10-10c4.87,0,8.908,3.484,9.798,8.094
	C51.18,53.748,50,56.738,50,60h6.667c0-3.686,2.983-6.666,6.667-6.666C67.02,53.334,70,56.314,70,60v1.85
	c-3.969,2.313-6.666,6.563-6.666,11.485H70c0-3.683,2.985-6.669,6.667-6.669c3.684,0,6.667,2.982,6.667,6.669
	C83.334,77.013,80.351,80.001,76.667,80.001z"/>
<path fill="#FFCA28" d="M50,36.667c0-9.205,7.465-16.666,16.67-16.666c9.2,0,16.664,7.46,16.664,16.666
	c0,6.664-3.931,12.364-9.583,15.025c1.39,1.74,2.354,3.832,2.733,6.119C84.457,54.104,90,46.042,90,36.667
	c0-12.89-10.448-23.333-23.33-23.333c-12.887,0-23.336,10.443-23.336,23.333c2.399,0,4.691,0.523,6.773,1.453
	C50.063,37.637,50,37.162,50,36.667z"/>
</svg>
