<?xml version="1.0" encoding="utf-8"?>
<!-- Generator: Adobe Illustrator 16.0.0, SVG Export Plug-In . SVG Version: 6.00 Build 0)  -->
<!DOCTYPE svg PUBLIC "-//W3C//DTD SVG 1.0//EN" "http://www.w3.org/TR/2001/REC-SVG-20010904/DTD/svg10.dtd">
<svg version="1.0" id="Layer_1" xmlns="http://www.w3.org/2000/svg" xmlns:xlink="http://www.w3.org/1999/xlink" x="0px" y="0px"
	 width="100px" height="100px" viewBox="0 0 100 100" enable-background="new 0 0 100 100" xml:space="preserve">
<path fill="#BDBDBD" d="M85.67,46.064C88.4,43.802,90,41.165,90,38.333c0-3.658-2.625-7.008-6.973-9.608
	c0.182-0.678,0.305-1.36,0.305-2.058C83.332,17.461,66.92,10,46.667,10C26.418,10,10,17.461,10,26.667
	c0,6.614,8.496,12.308,20.777,15c1.23,2.688,3.883,5.106,7.574,7.031c-1.07,1.444-1.686,3.001-1.686,4.635
	c0,2.526,1.432,4.882,3.879,6.897c-2.447,1.847-3.879,4.054-3.879,6.437c0,3.203,2.584,6.101,6.768,8.208
	C41.149,80.371,37.807,85.527,33.333,90c11.992,0,22.904-4.52,31.226-11.895c10.701-1.063,18.773-5.778,18.773-11.438
	c0-1.345-0.475-2.632-1.313-3.828c4.92-2.422,7.98-5.784,7.98-9.506C90,50.646,88.398,48.157,85.67,46.064z M16.667,26.667
	c0-2.903,10.516-10,30-10c19.486,0,30,7.097,30,10s-10.514,10-30,10C27.182,36.667,16.667,29.57,16.667,26.667z M44.739,83.443
	c1.289-2.162,2.412-4.42,3.373-6.752c2.48,0.736,5.248,1.244,8.207,1.479C52.734,80.516,48.84,82.297,44.739,83.443z M60,71.667
	c-9.851,0-15.701-3.464-16.603-5c0.393-0.674,1.787-1.706,3.994-2.666c4.451,1.666,9.957,2.666,15.941,2.666
	c4.225,0,8.201-0.508,11.748-1.382c0.785,0.521,1.307,1.011,1.523,1.382C75.699,68.203,69.852,71.667,60,71.667z M63.332,60
	c-12.906,0-20-5.007-20-6.667c0-0.469,0.619-1.204,1.707-2.013c4.406,1.271,9.503,2.013,14.96,2.013
	c7.287,0,13.965-1.302,19.162-3.463c2.693,1.328,4.17,2.721,4.17,3.463C83.332,54.993,76.24,60,63.332,60z M60,46.667
	c-7.869,0-13.835-1.6-17.773-3.472c1.459,0.082,2.934,0.138,4.439,0.138c14.234,0,26.542-3.694,32.621-9.082
	c2.652,1.519,4.045,3.093,4.045,4.082C83.332,40.749,75.156,46.667,60,46.667z"/>
</svg>
