<?xml version="1.0" encoding="utf-8"?>
<!-- Generator: Adobe Illustrator 16.0.0, SVG Export Plug-In . SVG Version: 6.00 Build 0)  -->
<!DOCTYPE svg PUBLIC "-//W3C//DTD SVG 1.0//EN" "http://www.w3.org/TR/2001/REC-SVG-20010904/DTD/svg10.dtd">
<svg version="1.0" id="Layer_1" xmlns="http://www.w3.org/2000/svg" xmlns:xlink="http://www.w3.org/1999/xlink" x="0px" y="0px"
	 width="100px" height="100px" viewBox="0 0 100 100" enable-background="new 0 0 100 100" xml:space="preserve">
<path fill="#BDBDBD" d="M86.666,58.955V26.667C86.666,17.464,79.201,10,70,10c-9.207,0-16.668,7.464-16.668,16.667v32.286
	C51.23,62.119,50,65.915,50,70c0,11.045,8.951,20,20,20c11.045,0,20-8.955,20-20C90,65.915,88.77,62.119,86.666,58.955z M70,83.332
	c-7.367,0-13.334-5.969-13.334-13.332c0-3.359,1.283-6.391,3.334-8.736V26.667c0-5.524,4.479-10,10-10s10,4.476,10,10v34.601
	c2.051,2.344,3.332,5.373,3.332,8.732C83.332,77.363,77.363,83.332,70,83.332z"/>
<polygon fill="#29B6F6" points="46.666,40 46.666,33.333 39.107,33.333 47.888,18.125 42.111,14.792 33.332,30 24.555,14.792 
	18.779,18.125 27.559,33.333 10,33.333 10,40 27.559,40 18.779,55.208 24.555,58.542 33.332,43.333 42.111,58.542 47.888,55.208 
	39.107,40 "/>
<path fill="#29B6F6" d="M73.332,64.258V50h-6.666v14.258c-1.984,1.155-3.334,3.281-3.334,5.742c0,3.682,2.982,6.667,6.668,6.667
	c3.682,0,6.666-2.985,6.666-6.667C76.666,67.539,75.318,65.413,73.332,64.258z"/>
</svg>
