<?xml version="1.0" encoding="utf-8"?>
<!-- Generator: Adobe Illustrator 16.0.0, SVG Export Plug-In . SVG Version: 6.00 Build 0)  -->
<!DOCTYPE svg PUBLIC "-//W3C//DTD SVG 1.0//EN" "http://www.w3.org/TR/2001/REC-SVG-20010904/DTD/svg10.dtd">
<svg version="1.0" id="Layer_1" xmlns="http://www.w3.org/2000/svg" xmlns:xlink="http://www.w3.org/1999/xlink" x="0px" y="0px"
	 width="100px" height="100px" viewBox="0 0 100 100" enable-background="new 0 0 100 100" xml:space="preserve">
<path fill="#29B6F6" d="M30,70h6.667C44.033,70,50,64.028,50,56.666c0-7.364-5.967-13.332-13.333-13.331
	c-3.682,0-7.017,1.491-9.43,3.906l-4.715-4.712c1.958-1.959,4.258-3.453,6.758-4.447C26.971,29.59,19.226,23.334,10,23.334v-6.668
	c11.998,0,22.572,8.093,25.716,19.678l0.098,0.364c0.285-0.011,0.566-0.04,0.853-0.04c0.001,0,0.003,0,0.004,0
	c5.341,0,10.362,2.08,14.139,5.856c3.776,3.775,5.856,8.798,5.856,14.141H60c9.188,0,16.667,7.478,16.667,16.668
	C76.667,82.522,69.188,90,60,90H10v-6.666h50c5.524,0,10-4.477,10-10s-4.476-10-10-10h-4.501
	c-2.753,7.755-10.144,13.333-18.832,13.333H30V70z"/>
<path fill="#FFCA28" d="M89.951,39.033C87.852,39.652,85.635,40,83.334,40C70.447,40,60,29.554,60,16.665
	c0-2.3,0.347-4.517,0.967-6.616C60.643,10.039,60.325,10,60,10c-12.542,0-23.273,7.705-27.755,18.633l0.017,0.062
	c1.521,2.309,2.702,4.878,3.455,7.649l0.098,0.364c0.285-0.011,0.566-0.04,0.853-0.04c0.001,0,0.003,0,0.004,0
	c0.091,0,0.181,0.005,0.271,0.007c1.304-9.068,7.804-16.48,16.407-19.043c0.5,15.77,13.23,28.506,28.996,29.019
	c-1.814,6.099-6.087,11.06-11.609,13.949c1.744,1.472,3.182,3.294,4.204,5.357C83.928,60.785,90,51.121,90,39.998
	C90,39.673,89.961,39.357,89.951,39.033z"/>
</svg>
