<?xml version="1.0" encoding="utf-8"?>
<!-- Generator: Adobe Illustrator 16.0.0, SVG Export Plug-In . SVG Version: 6.00 Build 0)  -->
<!DOCTYPE svg PUBLIC "-//W3C//DTD SVG 1.0//EN" "http://www.w3.org/TR/2001/REC-SVG-20010904/DTD/svg10.dtd">
<svg version="1.0" id="Layer_1" xmlns="http://www.w3.org/2000/svg" xmlns:xlink="http://www.w3.org/1999/xlink" x="0px" y="0px"
	 width="100px" height="100px" viewBox="0 0 100 100" enable-background="new 0 0 100 100" xml:space="preserve">
<polygon fill="#FFCA28" points="58.664,56.668 46.667,56.668 40,76.667 50,76.667 45.553,90 48.333,90 63.333,70.001 53.334,70.001 
	"/>
<path fill="#29B6F6" d="M90,33.334h-5c-2.754,0-5-2.244-5-5c0-2.758,2.246-5,5-5h5v-6.668h-5c-6.438,0-11.667,5.225-11.667,11.668
	C73.333,34.779,78.562,40,85,40h5V33.334z"/>
<path fill="#29B6F6" d="M73.333,43.334c-2.873-6.898-9.215-11.98-16.849-13.094c0.105-0.621,0.182-1.256,0.182-1.906
	c0-6.443-5.221-11.668-11.666-11.668h-5.977c-0.719-2.408-1.813-4.654-3.219-6.666h-9.231c4.079,3.037,6.759,7.853,6.759,13.332H45
	c2.76,0,5,2.244,5,5c0,0.689-0.145,1.347-0.396,1.945c-3.285,0.463-6.381,1.506-9.168,3.055H10V40h22.563
	c-2.323,2.901-4.065,6.29-5.023,10h-4.206C15.971,50,10,55.971,10,63.335c0,7.361,5.971,13.332,13.333,13.332h10v-6.666h-10
	c-3.679,0-6.667-2.991-6.667-6.666c0-3.677,2.988-6.667,6.667-6.667h10c0-11.045,8.956-20,20.001-20
	c7.702,0,13.989,5.851,14.831,13.332h5.168c5.514,0,10.001,4.484,10.001,10c0,5.517-4.487,10.001-10.001,10.001h-3.332v6.666h3.332
	C82.539,76.667,90,69.207,90,60C90,50.795,82.539,43.334,73.333,43.334z"/>
</svg>
