<?xml version="1.0" encoding="utf-8"?>
<!-- Generator: Adobe Illustrator 16.0.0, SVG Export Plug-In . SVG Version: 6.00 Build 0)  -->
<!DOCTYPE svg PUBLIC "-//W3C//DTD SVG 1.0//EN" "http://www.w3.org/TR/2001/REC-SVG-20010904/DTD/svg10.dtd">
<svg version="1.0" id="Layer_1" xmlns="http://www.w3.org/2000/svg" xmlns:xlink="http://www.w3.org/1999/xlink" x="0px" y="0px"
	 width="100px" height="100px" viewBox="0 0 100 100" enable-background="new 0 0 100 100" xml:space="preserve">
<path fill="#616161" d="M33.334,13.672C19.574,19.997,10,33.865,10,50s9.574,30.003,23.334,36.328
	C47.093,80.003,56.667,66.135,56.667,50S47.093,19.997,33.334,13.672z M33.334,78.836C23.379,73.069,16.667,62.329,16.667,50
	s6.712-23.07,16.667-28.836C43.288,26.93,50,37.671,50,50S43.288,73.069,33.334,78.836z"/>
<path fill="#FFCA28" d="M50,10c-5.957,0-11.588,1.338-16.666,3.672c2.596,1.193,5.042,2.655,7.303,4.351
	c2.969-0.877,6.108-1.356,9.363-1.356c18.409,0,33.333,14.925,33.333,33.333S68.409,83.334,50,83.334
	c-3.254,0-6.394-0.479-9.363-1.356c-2.262,1.695-4.708,3.157-7.303,4.351C38.412,88.662,44.043,90,50,90c22.09,0,40-17.91,40-40
	S72.09,10,50,10z"/>
</svg>
