<?xml version="1.0" encoding="utf-8"?>
<!-- Generator: Adobe Illustrator 16.0.0, SVG Export Plug-In . SVG Version: 6.00 Build 0)  -->
<!DOCTYPE svg PUBLIC "-//W3C//DTD SVG 1.0//EN" "http://www.w3.org/TR/2001/REC-SVG-20010904/DTD/svg10.dtd">
<svg version="1.0" id="Layer_1" xmlns="http://www.w3.org/2000/svg" xmlns:xlink="http://www.w3.org/1999/xlink" x="0px" y="0px"
	 width="100px" height="100px" viewBox="0 0 100 100" enable-background="new 0 0 100 100" xml:space="preserve">
<path fill="#BDBDBD" d="M83.333,58.955v-32.29C83.333,17.463,75.87,10,66.666,10s-16.665,7.463-16.665,16.666v32.29
	c-2.104,3.168-3.334,6.963-3.334,11.045c0,11.045,8.957,20,19.999,20c11.046,0,20.001-8.955,20.001-20
	C86.667,65.918,85.438,62.121,83.333,58.955z M66.666,83.333c-7.361,0-13.334-5.969-13.334-13.333c0-3.355,1.284-6.391,3.335-8.732
	V26.666c0-5.519,4.48-10,9.999-10c5.522,0,10.001,4.481,10.001,10v34.602c2.051,2.342,3.334,5.377,3.334,8.732
	C80.001,77.364,74.03,83.333,66.666,83.333z"/>
<path fill="#F44336" d="M70,64.258V33.332h-6.668v30.924C61.348,65.412,60,67.54,60,70c0,3.682,2.984,6.666,6.666,6.666
	c3.686,0,6.667-2.984,6.667-6.666C73.333,67.54,71.985,65.412,70,64.258z"/>
<rect x="13.333" y="70" fill="#29B6F6" width="23.333" height="6.666"/>
<polygon fill="#F44336" points="36.667,18.332 28.333,18.332 28.333,10 21.667,10 21.667,18.332 13.333,18.332 13.333,25 21.667,25 
	21.667,33.332 28.333,33.332 28.333,25 36.667,25 "/>
</svg>
