<?xml version="1.0" encoding="utf-8"?>
<!-- Generator: Adobe Illustrator 16.0.0, SVG Export Plug-In . SVG Version: 6.00 Build 0)  -->
<!DOCTYPE svg PUBLIC "-//W3C//DTD SVG 1.0//EN" "http://www.w3.org/TR/2001/REC-SVG-20010904/DTD/svg10.dtd">
<svg version="1.0" id="Layer_1" xmlns="http://www.w3.org/2000/svg" xmlns:xlink="http://www.w3.org/1999/xlink" x="0px" y="0px"
	 width="100px" height="100px" viewBox="0 0 100 100" enable-background="new 0 0 100 100" xml:space="preserve">
<path fill="#29B6F6" d="M90,43.333H58.332C56.49,43.333,55,41.839,55,40c0-1.843,1.49-3.333,3.332-3.333H65v-8.334
	c0-2.765,2.236-5,5-5s5,2.235,5,5h6.666V25c0-4.604,3.73-8.333,8.334-8.333V10c-5.996,0-11.133,3.542-13.533,8.63
	c-1.852-1.237-4.07-1.963-6.467-1.963c-6.445,0-11.668,5.221-11.668,11.666V30c-5.521,0-10,4.477-10,10c0,5.521,4.476,10,10,10H90
	V43.333z"/>
<path fill="#29B6F6" d="M73.332,70v-1.668c0-6.445-5.221-11.666-11.666-11.666c-2.395,0-4.615,0.727-6.469,1.963
	c-2.174-4.609-6.604-7.92-11.875-8.505c0-0.046,0.011-0.082,0.011-0.124c0-7.363-5.969-13.333-13.332-13.333
	c-0.057,0-0.109,0.017-0.168,0.017c-0.832-7.496-7.11-13.351-14.832-13.351c-1.763,0-3.435,0.336-5.002,0.897v7.474
	C11.396,30.648,13.115,30,15,30c4.604,0,8.333,3.73,8.333,8.333v5H30c3.684,0,6.666,2.985,6.666,6.667
	c0,0.318-0.044,0.617-0.09,0.924c-2.996,1.094-5.503,3.129-7.25,5.742H10v6.666c0,0,16.723,0,16.664,0
	c-7.363,0-13.332,5.971-13.332,13.334S19.301,90,26.664,90h46.668c5.525,0,10-4.48,10-10C83.332,74.475,78.857,70,73.332,70z
	 M73.332,83.332H26.664c-3.682,0-6.664-2.984-6.664-6.666S22.982,70,26.664,70h6.668v-5c0-4.604,3.73-8.334,8.332-8.334
	C46.27,56.666,50,60.396,50,65v3.332h6.666c0-2.764,2.236-5,5-5c2.766,0,5,2.236,5,5v8.334h6.666c1.844,0,3.334,1.49,3.334,3.334
	C76.666,81.838,75.176,83.332,73.332,83.332z"/>
</svg>
