<?xml version="1.0" encoding="utf-8"?>
<!-- Generator: Adobe Illustrator 16.0.0, SVG Export Plug-In . SVG Version: 6.00 Build 0)  -->
<!DOCTYPE svg PUBLIC "-//W3C//DTD SVG 1.0//EN" "http://www.w3.org/TR/2001/REC-SVG-20010904/DTD/svg10.dtd">
<svg version="1.0" id="Layer_1" xmlns="http://www.w3.org/2000/svg" xmlns:xlink="http://www.w3.org/1999/xlink" x="0px" y="0px"
	 width="100px" height="100px" viewBox="0 0 100 100" enable-background="new 0 0 100 100" xml:space="preserve">
<path fill="#29B6F6" d="M76.668,33.333C76.668,25.971,70.701,20,63.333,20c-1.564,0-3.047,0.318-4.442,0.815
	C56.514,14.505,50.476,10,43.334,10c-9.206,0-16.667,7.461-16.667,16.667C17.461,26.667,10,34.128,10,43.334
	C10,52.539,17.461,60,26.667,60h50C84.029,60,90,54.029,90,46.667S84.029,33.333,76.668,33.333z M76.668,53.334h-50
	c-5.521,0-10-4.479-10-10c0-5.527,4.479-10,10-10h6.666v-6.667c0-5.526,4.477-10,10-10c4.892,0,8.948,3.517,9.813,8.158
	c-1.935,2.311-3.146,5.253-3.146,8.509h6.666c0-3.685,2.984-6.667,6.666-6.667c3.687,0,6.667,2.981,6.667,6.667v1.85
	c-3.968,2.311-6.667,6.563-6.667,11.483H70C70,42.988,72.985,40,76.668,40c3.682,0,6.666,2.982,6.666,6.667
	C83.334,50.346,80.35,53.334,76.668,53.334z"/>
<polygon fill="#FFCA28" points="30,76.667 37.706,76.667 33.699,90 40.662,90 46.667,70 38.962,70 45.96,46.667 39.006,46.667 "/>
<polygon fill="#FFCA28" points="54.005,60 50.001,73.334 57.706,73.334 53.698,86.667 60.661,86.667 66.667,66.666 58.962,66.666 
	60.96,60 "/>
</svg>
